<svg width="21" height="15" viewBox="0 0 21 15" fill="none" xmlns="http://www.w3.org/2000/svg">
<path d="M20.5617 2.29922C20.4422 1.854 20.2078 1.44798 19.882 1.1218C19.5563 0.795626 19.1505 0.560731 18.7055 0.440625C17.0672 8.9407e-08 10.5 0 10.5 0C10.5 0 3.93281 -8.9407e-08 2.29453 0.438281C1.84927 0.557998 1.44334 0.792763 1.11751 1.119C0.791688 1.44524 0.557436 1.85146 0.438281 2.29688C-8.9407e-08 3.9375 0 7.35938 0 7.35938C0 7.35938 -8.9407e-08 10.7813 0.438281 12.4195C0.679687 13.3242 1.39219 14.0367 2.29453 14.2781C3.93281 14.7188 10.5 14.7188 10.5 14.7188C10.5 14.7188 17.0672 14.7188 18.7055 14.2781C19.6102 14.0367 20.3203 13.3242 20.5617 12.4195C21 10.7813 21 7.35938 21 7.35938C21 7.35938 21 3.9375 20.5617 2.29922ZM8.41406 10.5V4.21875L13.8516 7.33594L8.41406 10.5Z" fill="#818698"/>
</svg>
